<svg class="icon-definitions" version="1.1" xmlns="http://www.w3.org/2000/svg" xmlns:xlink="http://www.w3.org/1999/xlink">
    <defs>
        <symbol id="icon-play" viewBox="0 0 448 512">
            <path fill="currentColor" d="M424.4 214.7L72.4 6.6C43.8-10.3 0 6.1 0 47.9V464c0 37.5 40.7 60.1 72.4 41.3l352-208c31.4-18.5 31.5-64.1 0-82.6z"></path>
        </symbol>
        <symbol id="icon-stop" viewBox="0 0 448 512">
            <path fill="currentColor" d="M400 32H48C21.5 32 0 53.5 0 80v352c0 26.5 21.5 48 48 48h352c26.5 0 48-21.5 48-48V80c0-26.5-21.5-48-48-48z"></path>
        </symbol>
        <symbol id="icon-eyedropper" viewBox="0 0 512 512">
            <path fill="currentColor" d="M50.75 333.25c-12 12-18.75 28.28-18.75 45.26V424L0 480l32 32 56-32h45.49c16.97 0 33.25-6.74 45.25-18.74l126.64-126.62-128-128L50.75 333.25zM483.88 28.12c-37.47-37.5-98.28-37.5-135.75 0l-77.09 77.09-13.1-13.1c-9.44-9.44-24.65-9.31-33.94 0l-40.97 40.97c-9.37 9.37-9.37 24.57 0 33.94l161.94 161.94c9.44 9.44 24.65 9.31 33.94 0L419.88 288c9.37-9.37 9.37-24.57 0-33.94l-13.1-13.1 77.09-77.09c37.51-37.48 37.51-98.26.01-135.75z"></path>
        </symbol>
        <symbol id="waveform-animation" viewBox="0 0 48 40">
            <path id="first-bar" d="M0 0 H8 V40 H0 Z"></path>
            <path id="second-bar" d="M10 0 H18 V40 H10 Z"></path>
            <path id="third-bar" d="M20 0 H28 V40 H20 Z"></path>
            <path id="fourth-bar" d="M30 0 H38 V40 H30 Z"></path>
            <path id="fifth-bar" d="M40 0 H48 V40 H40 Z"></path>
            <animateTransform xlink:href="#first-bar" attributeType="XML" attributeName="transform" type="scale" values="1,1;1,.2;1,1" dur="1.6s" repeatCount="indefinite"></animateTransform>
            <animateTransform xlink:href="#second-bar" attributeType="XML" attributeName="transform" type="scale" values="1,.6;1,1;1,.6;1,.2;1,.6" dur="1.5s" repeatCount="indefinite"></animateTransform>
            <animateTransform xlink:href="#third-bar" attributeType="XML" attributeName="transform" type="scale" values="1,.5;1,1;1,.5" dur="1.4s" repeatCount="indefinite"></animateTransform>
            <animateTransform xlink:href="#fourth-bar" attributeType="XML" attributeName="transform" type="scale" values="1,.8;1,1;1,.8;1,.6;1,.4;1,.6;1,.8" dur="1.35s" repeatCount="indefinite"></animateTransform>
            <animateTransform xlink:href="#fifth-bar" attributeType="XML" attributeName="transform" type="scale" values="1,.25;1,1;1,.25" dur="1.55s" repeatCount="indefinite"></animateTransform>
        </symbol>
    </defs>
</svg>
